<svg width="112" height="82" viewBox="0 0 112 82" fill="none" xmlns="http://www.w3.org/2000/svg">
<path fill-rule="evenodd" clip-rule="evenodd" d="M0.0872835 19.9133C0.17688 19.9912 0.114284 19.9505 0.259188 20.0366C0.713366 20.3062 1.25869 20.4593 1.73477 20.6993C4.08155 21.8825 9.37151 24.2087 11.1674 26.0152C11.4805 26.33 11.7044 26.7229 12.1048 26.9213L12.5496 27.1401C11.6012 27.1612 8.92662 28.0527 10.9825 30.1083C11.6924 30.8183 13.8699 32.2246 14.8356 32.4496C14.6807 32.2182 14.5703 32.2199 14.333 32.0673C13.3943 31.464 11.4063 29.971 11.1192 29.0044C10.8654 28.1498 12.7331 28.1914 13.2764 28.1613C13.5677 28.1452 13.3777 28.1461 13.6682 28.1626L15.2789 28.1715C15.8402 28.1677 16.4921 28.2547 16.9866 28.3075C21.3576 28.7748 25.3903 29.4579 29.6792 29.9946C30.7539 30.1291 31.9101 30.1528 32.9226 30.2908L36.2185 30.4599C39.2659 30.4561 41.9619 30.4506 44.7979 30.0391C46.2768 29.8245 47.8689 29.4889 49.2456 29.0301L51.1484 28.2779C51.8149 27.9784 53.5936 26.9957 53.7715 26.3291C53.6208 26.43 53.5137 26.5262 53.3513 26.6466C51.7205 27.8547 48.7308 28.423 46.7464 28.6695L44.5534 28.8363C44.2255 28.8527 44.2003 28.9088 43.8189 28.913C42.4371 28.9283 40.7003 29.1225 39.2975 28.9303C38.7745 28.8586 38.2252 28.9391 37.6949 28.9106C37.3706 28.8931 37.3868 28.8442 37.0339 28.8341L33.2819 28.604C32.8941 28.5631 32.2152 28.4677 31.7959 28.4677C32.2696 26.4349 33.4746 25.6526 34.765 24.3578C35.2375 23.8835 35.7032 23.3994 35.9596 22.7501C36.2132 22.1086 36.1273 22.1915 36.0727 21.5358C35.3849 21.5931 33.8031 23.212 30.9214 23.685C28.3264 24.1109 26.6115 24.0423 23.9791 24.0432C21.8894 24.0436 19.1933 23.7671 17.1275 23.5943C16.063 23.5052 14.9508 23.3479 13.8827 23.2258C13.3611 23.166 12.7704 23.0881 12.2499 23.0149C11.7818 22.9492 11.0712 22.7992 10.6318 22.7895C10.6318 21.7904 9.97834 22.1263 10.5951 20.9093C11.6782 18.7725 13.3326 17.0128 14.7927 15.1516C15.9796 13.6391 16.0776 14.9406 16.3921 15.9228C17.0521 17.9829 18.0418 19.9127 19.5729 21.4438C20.2908 22.1614 21.5452 23.633 22.7557 23.041C25.2452 21.8238 25.7049 14.4227 26.0971 11.4127C26.1555 10.9645 26.0544 10.6287 26.2805 10.342C26.9639 9.47542 27.801 11.3758 28.0601 11.8501C29.3383 14.1909 30.4606 16.4106 30.7635 19.1755C30.8891 20.3224 30.986 20.3514 30.3838 21.0825C30.1719 21.34 29.9859 21.5659 30.0823 21.9183C30.1792 22.2723 30.3518 22.4669 30.8227 22.4167C31.1081 22.3862 31.5616 22.2661 31.8576 22.1875C32.6156 21.986 32.5361 21.1756 32.6397 20.4624C32.8925 18.7196 32.6058 16.5996 32.1333 14.93C31.4194 12.4075 30.3588 10.2544 29.0078 8.10005C27.8163 6.19993 25.7682 3.44323 24.0711 1.75438C23.959 1.64244 23.8811 1.57497 23.7758 1.45971C23.4459 1.098 23.042 0.634976 22.5905 1.19579C22.3376 1.50971 22.4644 1.79819 22.502 2.21741C22.6393 3.74786 22.7165 5.25441 22.7263 6.93595C22.7292 7.45274 22.6498 7.63791 22.6491 8.11222C22.6486 8.50135 22.6789 8.98716 22.6478 9.36458C22.6166 9.7411 22.6024 10.0898 22.5783 10.5486L22.4933 11.7173C22.2473 13.9705 22.0845 16.2381 21.7626 18.5083C21.6671 19.1824 21.6434 20.0317 21.4405 20.6934C21.3593 20.9584 21.0992 21.2128 20.7777 21.1321C20.289 21.0095 19.4924 19.3045 19.2836 18.857C17.395 14.8048 18.3825 9.52696 18.2876 9.0177C18.2285 8.7009 17.9799 8.42746 17.6379 8.44096C17.1306 8.46087 15.5072 10.3581 15.0745 10.788C14.6205 11.239 14.3175 11.6423 13.8952 12.1158C13.0972 13.0106 12.4399 14.0099 11.7809 15.016C10.3641 17.1792 9.30403 19.9434 9.30403 22.568C7.15592 22.568 1.13457 20.0005 0.0861816 19.9133H0.0872835Z" fill="white" fill-opacity="0.3"/>
<path fill-rule="evenodd" clip-rule="evenodd" d="M75.8887 40.4128C75.3254 40.4128 74.4511 40.454 73.9996 40.1633C73.766 40.0128 73.4552 39.6533 73.4552 39.3067V34.9558C73.4552 33.4203 77.4373 33.3318 77.4373 35.1034C77.4373 35.9449 77.5534 39.2069 77.1882 39.7949C76.9537 40.1723 76.4771 40.4128 75.8887 40.4128ZM70.948 34.8821V39.233C70.948 40.2476 71.5486 41.2495 72.2577 41.8318C73.2262 42.6273 74.3306 42.7726 75.7413 42.7726C77.2764 42.7726 77.591 41.8163 77.3541 43.648C77.1742 45.0369 75.4108 44.8203 74.2635 44.8345C73.9374 44.8387 73.8928 44.8754 73.6645 44.9013C73.4198 44.9289 73.2085 44.8926 73.0019 44.8889C72.2533 44.8754 71.5029 44.9148 71.0657 45.6926C70.883 46.0176 70.948 46.5742 70.948 47.0498C71.4548 47.1571 73.0939 47.0498 73.8976 47.0498C75.6907 47.0498 77.3368 47.4022 78.8582 45.8897C79.3679 45.3831 79.8707 44.7183 79.8707 43.7314C79.8707 42.0676 79.9864 32.3768 79.7971 31.564C77.7786 31.564 78.3458 31.9142 77.8167 31.9093C77.5353 31.9066 76.8692 31.564 75.7413 31.564C74.0673 31.564 72.8665 31.6131 71.7349 32.9409C71.5794 33.1234 71.4734 33.2214 71.3451 33.436C71.1226 33.8085 70.948 34.3178 70.948 34.8824V34.8821Z" fill="white" fill-opacity="0.3"/>
<path fill-rule="evenodd" clip-rule="evenodd" d="M57.8983 37.5333C57.8983 33.6083 57.5857 33.7725 61.8804 33.7725C62.0503 33.7725 62.1016 33.8238 62.1016 33.9937V39.1556C62.1016 41.3499 58.7155 40.9794 58.1065 40.0536C57.9122 39.7582 57.8983 38.0977 57.8983 37.5333ZM55.2436 36.3535C55.2436 38.726 54.9527 41.1393 57.1364 42.4988C58.2667 43.2025 60.655 43.3315 61.9465 42.9089C62.0523 42.8744 62.4706 42.6954 62.5443 42.6954C62.8985 42.6954 62.712 43.0463 64.1039 43.1275C64.432 43.1467 64.3318 43.072 64.6827 43.064V26.6196C64.3796 26.5943 64.5181 26.5459 64.2402 26.5459C63.3509 26.5459 62.5166 26.8264 62.2569 27.5129C62.1702 27.7418 62.2235 27.6613 62.2417 27.9471L62.2576 30.9049C62.2527 31.5631 62.2419 31.3054 59.7389 31.3359C58.2337 31.3543 57.278 31.7104 56.3309 32.6473C55.3993 33.569 55.2436 34.5605 55.2436 36.3533V36.3535Z" fill="white" fill-opacity="0.3"/>
<path fill-rule="evenodd" clip-rule="evenodd" d="M108.926 53.98L108.852 60.0268C108.852 60.3095 108.901 60.2639 108.895 60.4595C108.892 60.5599 108.853 60.7776 108.85 60.9823C108.843 61.5185 108.933 61.6479 108.696 62.0092C108.121 62.8855 107.095 62.7552 106.124 62.7552C104.557 62.7552 104.922 60.2653 104.866 59.5881C104.763 58.3382 104.877 55.7828 104.756 55.1996C104.509 54.0061 103.706 53.9059 102.658 53.9059C102.488 53.9059 102.437 53.9572 102.437 54.1271V61.5013C102.437 62.3806 102.637 62.8715 103.122 63.4702C104.495 65.1626 105.604 65.0409 107.672 65.0409C108.79 65.0409 108.958 64.2807 108.879 65.5026C108.844 66.0439 108.881 66.8709 107.744 67.0324C106.658 67.1868 103.494 66.9503 102.51 67.1795C102.24 68.3422 102.771 69.3917 103.838 69.3917H107.746C108.803 69.3917 109.521 68.7922 110.292 68.3237C110.815 68.0053 111.36 66.6386 111.36 65.7782V55.4542C111.36 54.0829 109.639 53.6258 108.926 53.9793L108.926 53.98Z" fill="white" fill-opacity="0.3"/>
<path fill-rule="evenodd" clip-rule="evenodd" d="M67.9299 1.49549C67.9299 1.0276 67.8638 1.0964 67.7602 0.75947C67.6224 0.310159 67.8286 0.399756 67.5611 0C67.2598 0.0249986 67.3025 0.135833 66.6521 0.492229C65.7418 0.991095 65.1232 1.88618 64.0319 2.22288C63.0379 2.5295 57.2936 2.68613 55.8529 2.34279C54.7386 2.0771 54.7554 1.58686 53.8913 1.42735C52.0127 1.08091 52.0793 2.89409 51.2353 3.07483C50.9621 3.13323 50.8391 3.06332 50.6169 3.00757C50.3762 2.94718 50.2723 2.94961 49.9365 2.94961C49.6407 3.39118 49.5095 3.95133 49.1252 4.71943C48.1062 6.75604 48.9372 6.45185 48.1244 7.55334C47.5972 8.2679 47.034 9.48995 47.0567 10.4724C47.0663 10.8874 47.1419 11.0171 47.03 11.5465C46.9203 12.0659 46.6338 12.5867 46.5172 13.0252C46.4676 13.2117 46.4532 13.4307 46.4015 13.5731C46.2172 14.0813 45.2296 14.2899 45.3991 15.0726C45.4969 15.5244 46.0559 16.6243 46.3077 16.8322C46.6468 17.1123 46.841 16.813 47.3556 16.813C47.6678 17.2791 47.3364 16.9805 47.7664 17.582C48.1512 18.1198 48.2421 20.884 47.8673 21.603C47.7786 21.7731 47.6605 21.8048 47.6775 22.0362C47.7045 22.4034 47.8589 22.0997 47.7377 22.5702C47.6169 23.0381 47.5534 23.4146 47.9016 23.715C48.1319 23.9137 48.5624 24.1287 48.9018 24.1931C49.2175 24.2531 49.8615 24.2427 50.1829 24.1137C50.9331 23.9049 51.2008 23.3874 51.3395 22.5671C51.8456 19.5763 51.0627 16.013 51.1165 15.637C51.1581 15.346 51.2169 15.327 51.485 15.2646L51.4899 14.9697L53.5509 16.0009C53.9411 16.192 54.1847 16.3059 54.4915 16.6088L55.2275 17.4214C55.3983 17.5698 55.4618 17.586 55.6344 17.7519L57.2172 19.2662C57.4042 19.4542 57.4663 19.4763 57.6575 19.6372C58.0566 19.973 57.7066 19.785 58.3121 20.1624C58.3727 20.2002 58.3904 20.2115 58.4439 20.2517C58.6329 20.3936 58.4344 20.2402 58.5641 20.3528C58.7373 20.2829 58.597 20.3725 58.6966 20.2641L58.7853 20.1316C58.8652 20.4307 59.0581 20.519 59.3014 20.6477C59.8308 20.1876 59.3328 20.3577 60.0388 19.9841C60.0607 20.2469 60.1635 20.2814 60.3064 20.2774C60.4418 20.2736 60.3226 20.4261 60.4076 20.2053H60.6288C60.7009 20.475 60.7067 20.3597 60.85 20.5741L61.0557 20.4265C61.0788 20.6442 61.1055 20.6995 61.1449 20.869C61.4409 20.7619 61.4894 20.4526 61.5303 20.2183C61.7013 19.2348 60.4837 17.5539 59.8711 16.8336L58.2128 15.321C58.0241 15.1465 57.8816 14.989 57.6977 14.8036L57.2371 14.3864C56.923 14.245 57.269 14.5822 56.923 14.3306C56.8542 14.2806 56.6918 14.0879 56.6374 14.0205C56.5407 13.9006 56.5363 13.8492 56.3854 13.7559C55.9863 13.5085 56.4182 13.8014 56.0881 13.6636C55.5822 13.4523 55.6005 12.9845 54.7935 13.0409C54.4187 13.0672 54.1479 12.9701 53.9922 12.7577C54.0701 12.4659 55.4514 11.268 55.4518 11.2677C55.8416 11.0562 56.6896 11.1354 57.163 11.1354C57.2201 10.449 57.6641 10.6304 57.6792 9.95564H58.4904C58.6335 9.65743 58.5791 9.51318 58.9012 9.33377C59.7788 8.84486 60.6854 9.87002 61.2188 9.88175L61.0425 9.54195C61.0312 9.52314 61.0007 9.46673 60.9883 9.44859C60.8334 9.22205 60.4394 9.0621 60.1578 8.95215C59.9361 8.86565 59.7718 8.85791 59.5853 8.77561C59.4711 8.77296 57.9732 8.5097 57.4692 8.5597C57.2002 8.58624 56.8124 8.72385 56.5157 8.79553C56.0025 8.91942 55.9175 8.72584 55.539 8.73536C55.1143 8.74597 54.3871 9.3289 53.9924 9.51341L52.1919 10.1769L52.2286 9.88241C52.0295 9.75277 51.9171 9.62557 51.7784 9.44107C51.672 9.29904 51.5231 9.06056 51.397 8.93755C50.9948 8.54576 50.682 8.82937 50.3506 8.14025C50.1703 7.76505 50.0265 7.22084 50.1026 6.65693C50.4136 4.34843 50.459 4.20375 53.1073 4.20375C54.3294 4.20375 55.4306 4.27742 56.7206 4.27742C57.8409 4.27742 59.1384 4.09004 60.2186 4.24534C60.823 4.33228 61.2637 4.369 61.8491 4.4586C65.5287 5.02118 66.451 2.74697 66.9579 2.34721C67.4622 1.94945 67.5401 2.11028 67.9297 1.49593L67.9299 1.49549Z" fill="white" fill-opacity="0.3"/>
<path fill-rule="evenodd" clip-rule="evenodd" d="M70.1417 56.267C72.3725 56.267 71.9851 55.9248 71.9851 57.5944C71.9851 58.3643 71.9821 61.742 71.8113 62.1399C71.3447 63.2273 70.1494 63.0547 69.1829 63.0512L67.998 63.135C67.4987 63.0956 67.7451 62.6784 67.7779 62.3103C67.8535 61.4561 67.7055 58.2118 67.8095 57.5482C67.8825 57.0831 67.8967 56.9902 68.1643 56.723C68.4057 56.4821 68.5444 56.3819 68.9656 56.3442C69.3933 56.3062 69.6707 56.2668 70.1419 56.2668L70.1417 56.267ZM65.201 57.5944C65.201 58.8611 65.0937 64.6336 65.2747 65.411C65.9258 65.5628 70.3149 65.551 71.2056 65.3687C71.8192 65.2431 72.0911 65.0422 72.4276 65.0422C72.6931 65.0422 73.1446 65.7077 74.4186 65.411V53.9072C74.0853 53.8999 74.1255 53.8335 73.755 53.8335C71.3509 53.8335 68.4389 53.5464 66.752 54.6474C65.7463 55.304 65.2008 56.3164 65.2008 57.5944H65.201Z" fill="white" fill-opacity="0.3"/>
<path fill-rule="evenodd" clip-rule="evenodd" d="M37.469 18.6565C37.2422 18.228 37.3871 18.3422 37.3978 17.7752L37.3953 14.3059C37.3953 12.8084 37.3493 11.7248 39.3864 11.7248H41.3774C41.5473 11.7248 41.5986 11.7762 41.5986 11.9461V16.9606C41.5986 17.9108 41.0867 18.3517 40.2812 18.5191L37.469 18.6568V18.6565ZM34.8143 13.2734C34.8143 14.5187 34.7076 20.0947 34.8879 20.8688C35.5368 21.0199 40.0549 21.0057 40.9783 20.8387C41.6053 20.7252 41.7265 20.5002 41.8933 20.5002C42.4835 20.5002 42.0608 20.9427 43.8107 20.9427C43.9832 20.9427 44.1056 20.8203 44.1056 20.6478V9.66013C44.1056 9.48757 43.9832 9.36523 43.8107 9.36523H38.9437C36.8139 9.36523 34.8141 10.8163 34.8141 13.2736L34.8143 13.2734Z" fill="white" fill-opacity="0.3"/>
<path fill-rule="evenodd" clip-rule="evenodd" d="M96.8386 18.657L96.691 14.3061C96.6875 11.3618 97.7728 11.7251 100.747 11.7251C100.917 11.7251 100.968 11.7764 100.968 11.9463V17.0345C100.968 18.9778 98.5849 18.5114 96.8383 18.6568L96.8386 18.657ZM94.1838 13.1263V20.5005C94.1838 20.7268 94.2522 20.9429 94.4787 20.9429C95.7729 20.9429 99.7481 21.1166 100.801 20.7022C100.969 20.6361 100.816 20.694 101 20.6058C101.247 20.4867 100.988 20.5005 101.263 20.5005C101.853 20.5005 101.431 20.9429 103.18 20.9429C103.465 20.9429 103.41 20.708 103.408 20.433C103.396 18.7879 103.338 10.6313 103.419 9.81167C103.44 9.59907 103.509 9.36523 103.18 9.36523H98.3135C97.101 9.36523 96.1251 9.87317 95.436 10.3961C94.7803 10.8937 94.1841 11.9788 94.1841 13.1261L94.1838 13.1263Z" fill="white" fill-opacity="0.3"/>
<path fill-rule="evenodd" clip-rule="evenodd" d="M96.6158 40.4085V35.7627C96.6158 33.3596 98.5201 33.7717 100.672 33.7717C100.841 33.7717 100.893 33.823 100.893 33.9929V38.9336C100.893 39.9864 100.339 40.4512 99.3902 40.6019C98.7068 40.7105 97.7686 40.5698 97.0715 40.6565C96.8826 40.68 96.6156 40.7355 96.6156 40.4083L96.6158 40.4085ZM94.1086 35.2466V42.5471C94.1086 42.7736 94.177 42.9896 94.4035 42.9896C95.6138 42.9896 99.1962 43.0654 100.21 42.8966C100.467 42.8539 101.082 42.5471 101.188 42.5471C101.778 42.5471 101.355 42.9896 103.105 42.9896C103.275 42.9896 103.326 42.9382 103.326 42.7683V31.6333C103.326 31.4634 103.275 31.4121 103.105 31.4121H98.238C96.1561 31.4121 94.1084 32.8238 94.1084 35.2466H94.1086Z" fill="white" fill-opacity="0.3"/>
<path fill-rule="evenodd" clip-rule="evenodd" d="M65.1265 18.5831C65.1265 17.7002 65.0595 13.6039 65.1668 13.0927C65.5314 11.3558 67.2919 11.7251 69.3299 11.7251C69.4993 12.4524 69.4035 15.5483 69.4035 16.5184C69.4035 17.6539 69.1029 18.3254 68.1427 18.5023C67.57 18.6079 65.5553 18.6831 65.1263 18.5831H65.1265ZM62.6194 13.1261V20.6478C62.6194 20.8203 62.7417 20.9427 62.9143 20.9427C64.1478 20.9427 67.7629 21.0338 68.7717 20.8268C69.0732 20.765 69.6006 20.5002 69.6986 20.5002C70.2889 20.5002 69.8661 20.9427 71.616 20.9427C71.7859 20.9427 71.8372 20.8914 71.8372 20.7215V9.58646C71.8372 9.41656 71.7859 9.36523 71.616 9.36523H66.8227C64.6314 9.36523 62.6194 10.7417 62.6194 13.1261Z" fill="white" fill-opacity="0.3"/>
<path fill-rule="evenodd" clip-rule="evenodd" d="M98.0947 57.6673V58.4046H93.8177C93.8316 58.2383 94.0223 57.0452 94.1699 56.8395C94.5979 56.2426 95.2074 56.3678 95.6596 56.3331C96.0424 56.3037 96.9109 56.2329 97.3124 56.4585C97.7126 56.6835 98.0947 57.0775 98.0947 57.6671V57.6673ZM91.3103 58.6998C91.3103 59.1272 91.3791 59.2648 91.3868 59.5867C91.3988 60.0767 91.1663 61.5753 91.4707 62.669C91.8016 63.8581 92.654 64.7684 93.8431 65.1636C95.3362 65.6595 98.5376 65.4841 100.307 65.4841C100.877 65.4841 100.742 63.5134 99.451 63.1692C97.5969 62.6748 94.2006 63.8318 93.9071 61.9288C93.8387 61.4865 93.8217 60.9903 93.8914 60.6908C95.2433 60.6908 96.5952 60.6908 97.9471 60.6908C98.7386 60.6908 100.602 60.7844 100.602 59.2898C100.602 57.6109 100.783 57.2448 100.087 55.8964C98.959 53.7127 96.2634 53.5171 94.0217 54.1106C92.9025 54.4069 91.9162 55.4376 91.5773 56.5333C91.3968 57.1171 91.3103 57.971 91.3103 58.6998Z" fill="white" fill-opacity="0.3"/>
<path fill-rule="evenodd" clip-rule="evenodd" d="M83.1978 12.758C83.1978 14.4608 84.447 15.5817 85.7487 16.0326C86.5847 16.3222 87.2798 16.3009 88.3614 16.2961C88.8612 16.2936 89.2782 16.3396 89.6023 16.5299C90.2067 16.8847 90.4679 17.563 89.7819 18.1623C88.8439 18.9815 85.5335 18.2424 84.4526 18.8061C83.6303 19.2351 83.5663 19.8337 83.5663 20.7221C83.5663 20.892 83.6176 20.9434 83.7875 20.9434H88.5809C90.7201 20.9434 92.7842 19.5406 92.7842 17.625C92.7842 15.9394 91.9019 14.8138 90.4261 14.2311C89.8109 13.988 88.8056 13.8694 88.1413 13.8612C87.0719 13.848 86.4635 13.9604 85.9839 13.2898C85.5193 12.6403 86.0686 11.9558 86.696 11.758C87.2573 11.5811 88.5822 11.6485 89.3189 11.6523C89.8585 11.6552 90.0872 11.5777 90.5721 11.5782C92.2136 11.5802 92.4156 10.6105 92.4156 9.29203C91.7041 9.12633 89.2545 9.21836 88.3599 9.21836C86.8301 9.21836 85.7279 9.36547 84.7778 9.98712C83.9809 10.5086 83.1978 11.4762 83.1978 12.758V12.758Z" fill="white" fill-opacity="0.3"/>
<path fill-rule="evenodd" clip-rule="evenodd" d="M80.4598 17.4788C80.4598 17.8033 80.2045 18.1161 79.9893 18.2617C79.4138 18.6504 77.1951 18.5858 76.404 18.5849C75.4824 18.5838 74.815 18.6517 74.3263 19.0882C74.0885 19.3008 73.9522 19.6048 73.8978 19.9875C73.8531 20.3019 73.6931 20.9447 74.1181 20.9447H78.9114C80.1461 20.9447 81.1029 20.5523 81.8 19.9986C83.8275 18.3876 83.5486 15.2827 80.5352 14.1591C79.0904 13.6204 77.446 14.127 76.6808 13.6628C75.6612 13.0443 76.0634 11.8112 77.4449 11.6612C78.1305 11.5866 79.147 11.6649 79.8733 11.6561C80.4532 11.649 81.4562 11.6061 81.9619 11.3112C82.828 10.8061 83.009 9.21973 82.4515 9.21973H78.7643C76.4782 9.21973 74.3179 9.68651 73.6657 11.7904C72.9832 13.9925 74.6234 15.8417 76.593 16.1846C77.9522 16.4211 80.4605 15.859 80.4605 17.479L80.4598 17.4788Z" fill="white" fill-opacity="0.3"/>
<path fill-rule="evenodd" clip-rule="evenodd" d="M86.3628 26.8395V39.3758C86.3628 40.4928 87.0767 41.6484 87.72 42.148C88.1638 42.4924 88.4633 42.6727 89.0622 42.8707C90.3942 43.3105 91.1371 43.0532 91.5941 43.0665C92.4642 43.0919 92.6308 43.4098 92.6308 42.3993C92.6308 41.3544 91.6746 40.8169 90.6276 40.7153C89.4031 40.5965 88.9436 40.287 88.9436 38.6384V33.7714H91.9671C92.5056 33.7714 92.4337 31.8939 90.9895 31.5043C90.0714 31.2565 89.969 31.338 88.9436 31.338C88.9436 29.7265 89.2308 27.359 88.0804 26.8181C87.6264 26.6046 86.3625 26.2953 86.3625 26.8398L86.3628 26.8395Z" fill="white" fill-opacity="0.3"/>
<path fill-rule="evenodd" clip-rule="evenodd" d="M54.9504 53.9049C54.9504 54.723 57.1565 60.6669 57.5784 61.8958C57.9065 62.8515 58.1994 64.2995 58.837 64.9142C59.1925 65.2571 59.7325 65.4824 60.4074 65.4824C60.8134 65.4824 60.9764 64.5782 61.1231 64.2072C61.6525 62.8697 62.2102 60.983 62.7361 59.6256L64.5714 54.2255C64.6919 53.4996 62.5715 53.9155 62.0109 54.4761C61.5578 54.9292 60.4057 58.3571 60.1026 59.2783C59.9931 59.6114 59.8236 59.9778 59.7438 60.3205C59.7336 60.3057 59.7203 60.2632 59.7168 60.2738L58.9969 58.2651C58.8314 57.7635 58.1054 55.43 57.8886 55.0964C57.4915 54.4854 57.0457 54.0151 56.2765 53.906C55.619 53.8129 55.5887 53.9049 54.9504 53.9049V53.9049Z" fill="white" fill-opacity="0.3"/>
<path fill-rule="evenodd" clip-rule="evenodd" d="M84.1484 49.1848V61.7948C84.1484 61.9925 84.415 62.9507 84.5752 63.2115C85.0488 63.982 85.2019 64.3453 85.9399 64.7964C87.3529 65.6602 88.5818 65.4817 90.2689 65.4817C90.8432 65.4817 90.4819 64.2612 90.308 63.894C89.8795 62.9887 88.5488 63.1515 87.9254 63.0319C86.9624 62.8469 86.7058 61.8525 86.7284 60.9826L86.7292 52.282C86.7292 50.5357 86.966 49.3032 85.2625 48.9552C84.9404 48.8895 84.1482 48.6694 84.1482 49.1846L84.1484 49.1848Z" fill="white" fill-opacity="0.3"/>
<path fill-rule="evenodd" clip-rule="evenodd" d="M105.018 26.6196C105.018 30.528 105.018 34.4362 105.018 38.3446C105.018 40.0724 105.026 41.3201 106.756 42.5065C107.638 43.1125 108.286 43.0045 109.094 43.118C109.692 43.2021 109.924 43.0109 110.444 43.0954C110.667 43.1317 110.928 43.1483 111.082 43.0837C111.271 43.0047 111.192 43.0686 111.279 42.9096C111.529 42.4488 111.299 41.3303 110.328 40.9245C109.544 40.5964 109.006 40.9562 108.115 40.4097C107.41 39.9774 107.777 39.1388 107.63 38.1663C107.378 36.5002 107.939 28.9228 107.328 27.4801C107.071 26.8718 106.295 26.5459 105.46 26.5459C105.206 26.5459 105.302 26.5899 105.018 26.6196H105.018Z" fill="white" fill-opacity="0.3"/>
<path fill-rule="evenodd" clip-rule="evenodd" d="M76.5544 49.3324V61.7211C76.5544 63.7037 78.3307 65.4819 80.5365 65.4819H82.6012C83.1178 65.4819 83.143 63.707 81.7095 63.2028C79.9965 62.6004 79.1353 63.8908 79.1353 60.3937V55.0106C79.1353 54.0348 79.0616 53.3319 79.0616 52.3559C79.0616 51.5384 79.1738 50.4334 78.9167 49.8461C78.5973 49.1153 77.7196 48.8901 76.8493 48.8901C76.6226 48.8901 76.5544 49.1061 76.5544 49.3326V49.3324Z" fill="white" fill-opacity="0.3"/>
<path fill-rule="evenodd" clip-rule="evenodd" d="M105.537 12.7571V21.0161C106.349 21.0161 107.251 21.121 107.767 20.2967C108.44 19.22 107.919 16.325 108.129 14.4639C108.273 13.1734 107.729 11.8879 109.337 11.5426C110.076 11.3839 110.477 11.5983 111.085 11.2262C111.85 10.7583 111.995 10.0314 111.805 9.21724C111.143 9.06305 110.223 9.14358 109.519 9.14358C108.2 9.14358 107.485 9.53227 106.772 10.1579C106.17 10.6873 105.537 11.6494 105.537 12.7569L105.537 12.7571Z" fill="white" fill-opacity="0.3"/>
<path fill-rule="evenodd" clip-rule="evenodd" d="M81.7937 31.7846V35.7667C81.7937 37.6013 81.8687 39.2134 81.8673 41.0024C81.8669 41.7245 81.7682 42.4249 82.6253 42.8992C82.7799 42.9849 84.3745 43.6306 84.3745 42.4774C84.3745 40.6932 84.4645 35.0395 84.3117 33.6172C84.2356 32.9069 84.3789 31.5636 82.3835 31.5636C81.9656 31.5636 81.7935 31.5056 81.7935 31.7848L81.7937 31.7846Z" fill="white" fill-opacity="0.3"/>
<path fill-rule="evenodd" clip-rule="evenodd" d="M66.6064 31.7852V41.5928C66.6064 42.2098 66.937 42.6257 67.4394 42.8985C67.8615 43.1275 69.1138 43.3025 69.1138 42.8465V33.1126C69.1138 31.7863 67.859 31.564 66.8279 31.564C66.658 31.564 66.6067 31.6153 66.6067 31.7852H66.6064Z" fill="white" fill-opacity="0.3"/>
<path fill-rule="evenodd" clip-rule="evenodd" d="M97.1337 76.4724C96.486 76.4724 96.5437 76.5341 96.5437 75.9563C96.5437 75.4977 97.1755 75.6932 97.355 75.7351C97.4815 75.9988 97.566 76.4724 97.1337 76.4724ZM97.4286 78.9796C96.2975 79.2431 96.5926 78.9059 96.0276 78.9059C95.8141 78.9059 95.7385 78.9557 95.611 79.0793L95.5115 79.2008C95.7132 80.0671 97.4211 80.0386 97.9994 79.5503C98.9268 78.7674 98.3025 77.8102 97.4185 77.6562C96.8433 77.556 97.0103 77.6221 97.0601 77.5049C97.2134 77.1423 97.2532 77.5458 97.8848 77.0759C98.6084 76.5377 98.3498 75.9333 98.3509 75.4399C98.3529 74.4752 98.6062 74.6526 97.6406 74.7656C97.2446 74.8121 96.9457 74.8021 96.561 74.8672C95.7679 75.0008 95.073 76.0169 95.8995 76.9693C96.2136 77.3312 96.0756 77.3894 96.0951 77.9537C96.1139 78.4942 96.3229 78.3885 96.8415 78.3871C97.3842 78.3858 97.4289 78.4413 97.4289 78.9796H97.4286Z" fill="white" fill-opacity="0.3"/>
<path fill-rule="evenodd" clip-rule="evenodd" d="M90.121 76.6936C90.121 76.2996 90.1953 76.0485 90.2685 75.735C91.253 75.5056 91.0028 75.7792 91.101 76.5259C91.1517 76.9113 91.1736 77.2296 91.0061 77.5785C90.4336 77.7154 90.1212 77.6654 90.1212 76.6936H90.121ZM89.2361 76.0299V77.3573C89.2361 77.8176 89.808 78.3897 90.2685 78.3897L91.6225 78.3426C91.999 78.2964 92.0465 78.4076 92.1129 78.0955L92.112 73.5227C91.1955 73.3093 91.2163 73.4668 91.2331 74.3397C91.2464 75.0357 91.1342 74.83 90.4887 74.849C89.8029 74.8693 89.2361 75.3304 89.2361 76.0299V76.0299Z" fill="white" fill-opacity="0.3"/>
<path fill-rule="evenodd" clip-rule="evenodd" d="M85.6282 74.9237C85.4676 75.6126 85.5545 77.2921 85.5545 78.0945C85.5545 78.4949 86.1503 78.377 86.4394 78.3157C86.614 77.5671 86.4124 76.4835 86.587 75.7347C87.6767 75.2119 87.4717 76.3897 87.477 76.4669C87.6117 78.4104 87.3741 78.4409 88.1497 78.3666L88.4307 78.3155C88.5829 77.6616 88.5044 76.8603 88.5044 76.1769C88.5044 75.8103 88.3294 75.4798 88.1488 75.2789C87.5413 74.6033 86.6799 74.9234 85.6284 74.9234L85.6282 74.9237Z" fill="white" fill-opacity="0.3"/>
<path fill-rule="evenodd" clip-rule="evenodd" d="M81.865 26.6221C81.865 27.2555 81.732 28.501 81.9568 28.9638C82.3342 29.7414 83.2784 29.8667 84.0772 29.8667C84.4887 29.8667 84.3721 29.0618 84.3721 28.5393C84.3721 26.4998 83.0452 26.4985 81.865 26.6219V26.6221Z" fill="white" fill-opacity="0.3"/>
<path fill-rule="evenodd" clip-rule="evenodd" d="M66.6072 26.6198C66.6072 27.3563 66.4694 28.4847 66.7548 28.9794C67.2824 29.8937 69.1146 30.1627 69.1146 29.5694C69.1146 28.0606 69.3892 26.5459 67.1236 26.5459C66.8705 26.5459 66.8365 26.5957 66.6075 26.6196L66.6072 26.6198Z" fill="white" fill-opacity="0.3"/>
<path fill-rule="evenodd" clip-rule="evenodd" d="M100.152 77.2842C100.152 76.6223 100.096 76.2902 100.226 75.7356C101.231 75.5013 101.037 75.8049 101.037 77.2842C101.037 77.7003 100.152 77.7003 100.152 77.2842ZM101.995 76.1703L101.928 76.1626L101.84 76.1106L101.535 76.0336L101.482 75.9551L101.409 75.8776L101.34 75.8108L101.328 75.7383L101.334 75.4451L101.446 75.0719C101.105 74.8604 100.839 74.8076 100.3 74.8509C99.16 74.943 99.1916 75.9057 99.1927 76.5466C99.1936 77.0145 99.1325 77.5183 99.3272 77.8134C100.091 78.9717 101.811 78.3799 101.98 77.5647C102.034 77.3056 101.995 76.4869 101.995 76.1703H101.995Z" fill="white" fill-opacity="0.3"/>
<path fill-rule="evenodd" clip-rule="evenodd" d="M103.624 79.3471C103.624 79.6634 103.766 80.1826 103.892 80.4068C104.274 81.089 104.834 81.2414 105.39 80.7443C106.2 80.0196 105.099 79.1885 105.099 78.1673C105.099 76.58 105.377 77.1642 105.394 76.3975C105.01 76.4293 105.105 76.5342 104.749 76.9326C104.235 77.5082 103.624 78.4923 103.624 79.3473V79.3471Z" fill="white" fill-opacity="0.3"/>
<path fill-rule="evenodd" clip-rule="evenodd" d="M101.452 75.0685L101.34 75.4417L101.334 75.7348L101.346 75.8074L101.415 75.8742L101.488 75.9516L101.541 76.0301L101.846 76.1071L101.934 76.1591L102.001 76.1669C103.153 75.9571 104.398 75.2295 105.894 75.6054C106.196 75.6813 106.129 75.7213 106.426 75.6585C105.493 74.2652 102.56 73.9064 101.453 75.0685H101.452Z" fill="white" fill-opacity="0.3"/>
<path fill-rule="evenodd" clip-rule="evenodd" d="M104.208 72.8556C104.208 73.7912 104.524 73.5096 105.828 74.2589C106.276 74.5164 106.638 74.823 106.83 75.3214C106.948 75.6278 106.87 75.655 107.157 75.7316C107.549 74.9164 107.133 72.2656 104.945 72.2656C104.635 72.2656 104.208 72.5926 104.208 72.8556H104.208Z" fill="white" fill-opacity="0.3"/>
<path fill-rule="evenodd" clip-rule="evenodd" d="M93.2971 77.43C93.2971 78.6406 95.657 78.6695 95.657 78.02C95.657 77.8116 95.3495 77.5776 95.1408 77.5776C94.6285 77.5776 94.7889 77.7594 94.2559 77.5039C94.2559 77.0289 94.2933 76.5172 94.2247 76.0602C94.0531 74.9118 94.4572 74.9229 93.2971 74.9229V77.43Z" fill="white" fill-opacity="0.3"/>
<path fill-rule="evenodd" clip-rule="evenodd" d="M106.865 77.2822C107.987 77.8202 111.511 76.7517 111.511 75.8812C111.511 74.8731 110.336 75.5133 109.875 75.7931C109.282 76.1522 107.996 77.0112 107.442 77.0528C107.008 77.0853 106.912 76.857 106.865 77.2822Z" fill="white" fill-opacity="0.3"/>
<path fill-rule="evenodd" clip-rule="evenodd" d="M82.7544 77.3568C82.7544 77.6214 82.9896 77.9365 83.1418 78.0756C83.8415 78.7152 85.7182 78.3652 84.9722 77.7201C84.5631 77.3664 84.1125 77.8115 83.8046 77.4885C83.6725 77.3498 83.7017 76.2292 83.6508 75.7231C83.5656 74.8753 83.9422 74.9233 82.7544 74.9233V77.3568V77.3568Z" fill="white" fill-opacity="0.3"/>
<path fill-rule="evenodd" clip-rule="evenodd" d="M108.046 79.3484C108.711 79.3484 109.248 79.0759 109.373 78.5372C108.985 77.9573 108.485 78.102 107.435 77.9684C106.962 77.9082 106.733 77.9693 106.378 77.7717C106.094 77.614 105.909 77.4403 105.612 77.2837C105.636 78.3575 106.924 79.3484 108.046 79.3484H108.046Z" fill="white" fill-opacity="0.3"/>
<path fill-rule="evenodd" clip-rule="evenodd" d="M107.458 76.4698C107.783 76.4428 107.804 76.372 107.995 76.195C108.164 76.0386 108.26 75.982 108.436 75.8251C108.617 75.6636 108.704 75.6267 108.879 75.4572C109.044 75.2984 109.162 75.1798 109.323 75.0155C109.55 74.7832 109.806 74.3432 109.851 73.927C109.946 73.047 109.48 72.9302 108.933 72.9302C108.186 72.9302 108.476 74.8329 107.946 75.7033C107.805 75.9349 107.517 76.2508 107.458 76.4698V76.4698Z" fill="white" fill-opacity="0.3"/>
<path fill-rule="evenodd" clip-rule="evenodd" d="M102.069 78.0214C102.069 78.5312 102.809 78.5504 103.173 77.9464C103.49 77.4215 103.813 76.7319 104.335 76.3795C104.369 76.3563 104.503 76.2667 104.511 76.2605C104.645 76.1468 104.574 76.2917 104.65 76.1043C104.23 75.903 103.328 76.4036 103.048 76.641C102.794 76.8565 102.069 77.6511 102.069 78.0217V78.0214Z" fill="white" fill-opacity="0.3"/>
<path fill-rule="evenodd" clip-rule="evenodd" d="M82.7472 74.1128C83.2044 74.2192 83.1748 74.2192 83.6321 74.1128C83.6321 73.3967 83.6108 73.4491 82.9684 73.4491C82.6489 73.4491 82.7472 73.7845 82.7472 74.1128Z" fill="white" fill-opacity="0.3"/>
<path fill-rule="evenodd" clip-rule="evenodd" d="M93.3006 74.1119C93.7517 74.217 93.6606 74.217 94.1119 74.1119C94.2652 73.4538 94.1773 73.4482 93.5218 73.4482C93.2024 73.4482 93.3006 73.7836 93.3006 74.1119Z" fill="white" fill-opacity="0.3"/>
<path fill-rule="evenodd" clip-rule="evenodd" d="M0.0860494 19.9116V19.8379L0 19.8992L0.0860494 19.9116Z" fill="white" fill-opacity="0.3"/>
<path fill-rule="evenodd" clip-rule="evenodd" d="M101.479 75.9488L101.409 75.874L101.479 75.9488Z" fill="white" fill-opacity="0.3"/>
<path fill-rule="evenodd" clip-rule="evenodd" d="M101.537 76.0304L101.485 75.9546L101.537 76.0304Z" fill="white" fill-opacity="0.3"/>
<path fill-rule="evenodd" clip-rule="evenodd" d="M101.334 75.735L101.34 75.4419L101.334 75.735Z" fill="white" fill-opacity="0.3"/>
<path fill-rule="evenodd" clip-rule="evenodd" d="M101.412 75.8736L101.345 75.8091L101.412 75.8736Z" fill="white" fill-opacity="0.3"/>
<path fill-rule="evenodd" clip-rule="evenodd" d="M101.93 76.1584L101.842 76.1064L101.93 76.1584Z" fill="white" fill-opacity="0.3"/>
</svg>
